<?xml version="1.0" encoding="utf-8" standalone="no"?>
<!-- Creator: Esri ArcMap 10.5.0.6491 -->
<!DOCTYPE svg PUBLIC "-//W3C//DTD SVG 1.1//EN"  "http://www.w3.org/Graphics/SVG/1.1/DTD/svg11.dtd">
<svg width="173.25354pt" height="150.00945pt" viewBox="0 0 173.25354 150.00945" enable-background="new 0 0 173.25354 150.00945"
	version="1.1" xmlns="http://www.w3.org/2000/svg" xmlns:xlink="http://www.w3.org/1999/xlink" >
	<g id="Other">
		<clipPath id="SVG_CP_1">
			<path d="M0,150.00945L0,0L173.25354,0L173.25354,150.00945L0,150.00945z"/>
		</clipPath>
		<path clip-path="url(#SVG_CP_1)" fill="#FFFFFF" fill-rule="evenodd" stroke="none" d="M-0.96003,150.99556L-0.96003,-1.44263
			L175.20511,-1.44263L175.20511,150.99556L-0.96003,150.99556z"/>
		<path clip-path="url(#SVG_CP_1)" fill="#6691FF" fill-rule="evenodd" stroke="#0070FF" stroke-width="0.48001" stroke-miterlimit="10" stroke-linecap="round" stroke-linejoin="round" d="
			M3.84011,19.71598L3.84011,3.84702L35.52104,3.84702L35.52104,19.71598L3.84011,19.71598z"/>
		<g font-family="'Arial'" font-size="1" kerning="0" font-weight="400" fill="#000000" clip-path="url(#SVG_CP_1)" >
			<text text-anchor="start" transform="matrix(11.04032 0 0 11.06018 41.2812 15.86896)" >
				<tspan direction="ltr" unicode-bidi="embed" x="0 ">О</tspan>
				<tspan direction="ltr" unicode-bidi="embed" x="0.78402 ">р</tspan>
				<tspan direction="ltr" unicode-bidi="embed" x="1.35025 ">о</tspan>
				<tspan direction="ltr" unicode-bidi="embed" x="1.91649 ">ш</tspan>
				<tspan direction="ltr" unicode-bidi="embed" x="2.74406 ">а</tspan>
				<tspan direction="ltr" unicode-bidi="embed" x="3.31029 ">е</tspan>
				<tspan direction="ltr" unicode-bidi="embed" x="3.87653 ">м</tspan>
				<tspan direction="ltr" unicode-bidi="embed" x="4.57343 ">ы</tspan>
				<tspan direction="ltr" unicode-bidi="embed" x="5.31389 ">е</tspan>
				<tspan direction="ltr" unicode-bidi="embed" x="6.18502 ">т</tspan>
				<tspan direction="ltr" unicode-bidi="embed" x="6.66414 ">е</tspan>
				<tspan direction="ltr" unicode-bidi="embed" x="7.23038 ">р</tspan>
				<tspan direction="ltr" unicode-bidi="embed" x="7.79661 ">р</tspan>
				<tspan direction="ltr" unicode-bidi="embed" x="8.36284 ">и</tspan>
				<tspan direction="ltr" unicode-bidi="embed" x="8.92908 ">т</tspan>
				<tspan direction="ltr" unicode-bidi="embed" x="9.4082 ">о</tspan>
				<tspan direction="ltr" unicode-bidi="embed" x="9.97443 ">р</tspan>
				<tspan direction="ltr" unicode-bidi="embed" x="10.54067 ">и</tspan>
				<tspan direction="ltr" unicode-bidi="embed" x="11.1069 ">и</tspan>
			</text>
		</g>
		<clipPath id="SVG_CP_2">
			<path d="M0,150.00945L0,0L173.25354,0L173.25354,150.00945L0,150.00945z"/>
		</clipPath>
		<g font-family="'Arial'" font-size="1" kerning="0" font-weight="700" fill="#000000" clip-path="url(#SVG_CP_2)" >
			<text text-anchor="start" transform="matrix(12.00035 0 0 12.02194 3.84011 36.06582)" >
				<tspan direction="ltr" unicode-bidi="embed" x="0 ">П</tspan>
				<tspan direction="ltr" unicode-bidi="embed" x="0.7213 ">о</tspan>
				<tspan direction="ltr" unicode-bidi="embed" x="1.2823 ">с</tspan>
				<tspan direction="ltr" unicode-bidi="embed" x="1.84331 ">е</tspan>
				<tspan direction="ltr" unicode-bidi="embed" x="2.40432 ">в</tspan>
				<tspan direction="ltr" unicode-bidi="embed" x="3.04547 ">н</tspan>
				<tspan direction="ltr" unicode-bidi="embed" x="3.64655 ">ы</tspan>
				<tspan direction="ltr" unicode-bidi="embed" x="4.48806 ">е</tspan>
				<tspan direction="ltr" unicode-bidi="embed" x="5.32957 ">п</tspan>
				<tspan direction="ltr" unicode-bidi="embed" x="5.93065 ">о</tspan>
				<tspan direction="ltr" unicode-bidi="embed" x="6.53173 ">л</tspan>
				<tspan direction="ltr" unicode-bidi="embed" x="7.17288 ">я</tspan>
			</text>
		</g>
		<path clip-path="url(#SVG_CP_2)" fill="none" stroke="#000000" stroke-width="0.48001" stroke-miterlimit="10" stroke-linecap="round" stroke-linejoin="round" d="
			M3.84011,60.1097L3.84011,44.24074L35.52104,44.24074L35.52104,60.1097L3.84011,60.1097"/>
		<g font-family="'Arial'" font-size="1" kerning="0" font-weight="400" fill="#000000" clip-path="url(#SVG_CP_2)" >
			<text text-anchor="start" transform="matrix(11.04032 0 0 11.06018 41.2812 56.74356)" >
				<tspan direction="ltr" unicode-bidi="embed" x="0 ">П</tspan>
				<tspan direction="ltr" unicode-bidi="embed" x="0.6969 ">а</tspan>
				<tspan direction="ltr" unicode-bidi="embed" x="1.30669 ">ш</tspan>
				<tspan direction="ltr" unicode-bidi="embed" x="2.13427 ">н</tspan>
				<tspan direction="ltr" unicode-bidi="embed" x="2.7005 ">я</tspan>
			</text>
		</g>
		<path clip-path="url(#SVG_CP_2)" fill="#894444" fill-rule="evenodd" stroke="#000000" stroke-width="0.48001" stroke-miterlimit="10" stroke-linecap="round" stroke-linejoin="round" d="
			M3.84011,81.74919L3.84011,65.88023L35.52104,65.88023L35.52104,81.74919L3.84011,81.74919z"/>
		<g font-family="'Arial'" font-size="1" kerning="0" font-weight="400" fill="#000000" clip-path="url(#SVG_CP_2)" >
			<text text-anchor="start" transform="matrix(11.04032 0 0 11.06018 41.2812 77.90217)" >
				<tspan direction="ltr" unicode-bidi="embed" x="0 ">П</tspan>
				<tspan direction="ltr" unicode-bidi="embed" x="0.6969 ">а</tspan>
				<tspan direction="ltr" unicode-bidi="embed" x="1.30669 ">р</tspan>
			</text>
		</g>
		<path clip-path="url(#SVG_CP_2)" fill="#730000" fill-rule="evenodd" stroke="#000000" stroke-width="0.48001" stroke-miterlimit="10" stroke-linecap="round" stroke-linejoin="round" d="
			M3.84011,103.38868L3.84011,87.51972L35.52104,87.51972L35.52104,103.38868L3.84011,103.38868z"/>
		<g font-family="'Arial'" font-size="1" kerning="0" font-weight="400" fill="#000000" clip-path="url(#SVG_CP_2)" >
			<text text-anchor="start" transform="matrix(11.04032 0 0 11.06018 41.2812 99.54166)" >
				<tspan direction="ltr" unicode-bidi="embed" x="0 ">П</tspan>
				<tspan direction="ltr" unicode-bidi="embed" x="0.6969 ">а</tspan>
				<tspan direction="ltr" unicode-bidi="embed" x="1.30669 ">р</tspan>
				<tspan direction="ltr" unicode-bidi="embed" x="2.13427 ">и</tspan>
				<tspan direction="ltr" unicode-bidi="embed" x="2.7005 ">з</tspan>
				<tspan direction="ltr" unicode-bidi="embed" x="3.48452 ">з</tspan>
				<tspan direction="ltr" unicode-bidi="embed" x="3.96364 ">а</tspan>
				<tspan direction="ltr" unicode-bidi="embed" x="4.52987 ">л</tspan>
				<tspan direction="ltr" unicode-bidi="embed" x="5.13967 ">е</tspan>
				<tspan direction="ltr" unicode-bidi="embed" x="5.66234 ">ж</tspan>
				<tspan direction="ltr" unicode-bidi="embed" x="6.35925 ">и</tspan>
			</text>
		</g>
		<path clip-path="url(#SVG_CP_2)" fill="#267300" fill-rule="evenodd" stroke="#000000" stroke-width="0.48001" stroke-miterlimit="10" stroke-linecap="round" stroke-linejoin="round" d="
			M3.84011,124.54729L3.84011,108.67833L35.52104,108.67833L35.52104,124.54729L3.84011,124.54729z"/>
		<g font-family="'Arial'" font-size="1" kerning="0" font-weight="400" fill="#000000" clip-path="url(#SVG_CP_2)" >
			<text text-anchor="start" transform="matrix(11.04032 0 0 11.06018 41.2812 121.18115)" >
				<tspan direction="ltr" unicode-bidi="embed" x="0 ">М</tspan>
				<tspan direction="ltr" unicode-bidi="embed" x="0.82757 ">н</tspan>
				<tspan direction="ltr" unicode-bidi="embed" x="1.39381 ">о</tspan>
				<tspan direction="ltr" unicode-bidi="embed" x="1.96004 ">г</tspan>
				<tspan direction="ltr" unicode-bidi="embed" x="2.30849 ">о</tspan>
				<tspan direction="ltr" unicode-bidi="embed" x="2.87473 ">л</tspan>
				<tspan direction="ltr" unicode-bidi="embed" x="3.48452 ">е</tspan>
				<tspan direction="ltr" unicode-bidi="embed" x="4.0072 ">т</tspan>
				<tspan direction="ltr" unicode-bidi="embed" x="4.48632 ">к</tspan>
				<tspan direction="ltr" unicode-bidi="embed" x="4.96544 ">а</tspan>
			</text>
		</g>
		<clipPath id="SVG_CP_3">
			<path d="M3.84011,146.18679L3.84011,130.31783L35.52104,130.31783L35.52104,146.18679L3.84011,146.18679z"/>
		</clipPath>
		<path clip-path="url(#SVG_CP_3)" fill="none" stroke="#990099" stroke-width="0.48001" stroke-miterlimit="10" d="M-8.64025,124.06642
			L-2.40007,117.81501"/>
		<path clip-path="url(#SVG_CP_3)" fill="none" stroke="#990099" stroke-width="0.48001" stroke-miterlimit="10" d="M-8.64025,131.27958
			L4.80014,117.81501"/>
		<path clip-path="url(#SVG_CP_3)" fill="none" stroke="#990099" stroke-width="0.48001" stroke-miterlimit="10" d="M-8.64025,138.01187
			L12.00035,117.81501"/>
		<path clip-path="url(#SVG_CP_3)" fill="none" stroke="#990099" stroke-width="0.48001" stroke-miterlimit="10" d="M-8.64025,145.22503
			L18.72055,117.81501"/>
		<path clip-path="url(#SVG_CP_3)" fill="none" stroke="#990099" stroke-width="0.48001" stroke-miterlimit="10" d="M-2.40007,146.18679
			L25.92076,117.81501"/>
		<path clip-path="url(#SVG_CP_3)" fill="none" stroke="#990099" stroke-width="0.48001" stroke-miterlimit="10" d="M4.32013,146.18679
			L33.12097,117.81501"/>
		<path clip-path="url(#SVG_CP_3)" fill="none" stroke="#990099" stroke-width="0.48001" stroke-miterlimit="10" d="M11.52034,146.18679
			L40.32118,117.81501"/>
		<path clip-path="url(#SVG_CP_3)" fill="none" stroke="#990099" stroke-width="0.48001" stroke-miterlimit="10" d="M18.72055,146.18679
			L47.04137,117.81501"/>
		<path clip-path="url(#SVG_CP_3)" fill="none" stroke="#990099" stroke-width="0.48001" stroke-miterlimit="10" d="M25.92076,146.18679
			L54.24158,117.81501"/>
		<path clip-path="url(#SVG_CP_3)" fill="none" stroke="#990099" stroke-width="0.48001" stroke-miterlimit="10" d="M32.64095,146.18679
			L61.44179,117.81501"/>
		<clipPath id="SVG_CP_4">
			<path d="M3.84011,146.18679L3.84011,130.31783L35.52104,130.31783L35.52104,146.18679L3.84011,146.18679z"/>
		</clipPath>
		<path clip-path="url(#SVG_CP_4)" fill="none" stroke="#990099" stroke-width="0.48001" stroke-miterlimit="10" d="M2.88008,146.18679
			L-8.64025,134.64572"/>
		<path clip-path="url(#SVG_CP_4)" fill="none" stroke="#990099" stroke-width="0.48001" stroke-miterlimit="10" d="M10.08029,146.18679
			L-8.64025,127.43256"/>
		<path clip-path="url(#SVG_CP_4)" fill="none" stroke="#990099" stroke-width="0.48001" stroke-miterlimit="10" d="M17.2805,146.18679
			L-8.64025,120.2194"/>
		<path clip-path="url(#SVG_CP_4)" fill="none" stroke="#990099" stroke-width="0.48001" stroke-miterlimit="10" d="M24.0007,146.18679
			L-4.32013,117.81501"/>
		<path clip-path="url(#SVG_CP_4)" fill="none" stroke="#990099" stroke-width="0.48001" stroke-miterlimit="10" d="M31.20091,146.18679
			L2.88008,117.81501"/>
		<path clip-path="url(#SVG_CP_4)" fill="none" stroke="#990099" stroke-width="0.48001" stroke-miterlimit="10" d="M38.40112,146.18679
			L9.60028,117.81501"/>
		<path clip-path="url(#SVG_CP_4)" fill="none" stroke="#990099" stroke-width="0.48001" stroke-miterlimit="10" d="M45.12132,146.18679
			L16.80049,117.81501"/>
		<path clip-path="url(#SVG_CP_4)" fill="none" stroke="#990099" stroke-width="0.48001" stroke-miterlimit="10" d="M52.32153,146.18679
			L24.0007,117.81501"/>
		<path clip-path="url(#SVG_CP_4)" fill="none" stroke="#990099" stroke-width="0.48001" stroke-miterlimit="10" d="M59.52174,146.18679
			L31.20091,117.81501"/>
		<clipPath id="SVG_CP_5">
			<path d="M0,150.00945L0,0L173.25354,0L173.25354,150.00945L0,150.00945z"/>
		</clipPath>
		<path clip-path="url(#SVG_CP_5)" fill="none" stroke="#000000" stroke-width="0.48001" stroke-miterlimit="10" stroke-linecap="round" stroke-linejoin="round" d="
			M3.84011,146.18679L3.84011,130.31783L35.52104,130.31783L35.52104,146.18679L3.84011,146.18679"/>
		<g font-family="'Arial'" font-size="1" kerning="0" font-weight="400" fill="#000000" clip-path="url(#SVG_CP_5)" >
			<text text-anchor="start" transform="matrix(11.04032 0 0 11.06018 41.2812 142.33976)" >
				<tspan direction="ltr" unicode-bidi="embed" x="0 ">З</tspan>
				<tspan direction="ltr" unicode-bidi="embed" x="0.60979 ">а</tspan>
				<tspan direction="ltr" unicode-bidi="embed" x="1.17603 ">л</tspan>
				<tspan direction="ltr" unicode-bidi="embed" x="1.78582 ">е</tspan>
				<tspan direction="ltr" unicode-bidi="embed" x="2.35205 ">ж</tspan>
				<tspan direction="ltr" unicode-bidi="embed" x="3.0054 ">ь</tspan>
			</text>
		</g>
		<path clip-path="url(#SVG_CP_5)" fill="none" stroke="#000000" stroke-width="0.96003" stroke-miterlimit="10" stroke-linecap="square" d="
			M-0.96003,150.99556L-0.96003,-1.44263L175.20511,-1.44263L175.20511,150.99556L-0.96003,150.99556"/>
	</g>
</svg>
