<svg id="Flat" height="512" viewBox="0 0 512 512" width="512" xmlns="http://www.w3.org/2000/svg"><g id="_10_copy_4" data-name="10 copy 4"><g><g fill="#ffbd80"><path d="m435.923 95.466h68.153v16.001h-68.153z" transform="matrix(.499 -.867 .867 .499 145.853 459.183)"/><path d="m353.231 40.467h67.399v15.999h-67.399z" transform="matrix(.532 -.847 .847 .532 140.023 350.296)"/><path d="m426.431 56.718h16v15.999h-16z" transform="matrix(.5 -.866 .866 .5 161.158 408.579)"/></g><path d="m473.856 124.43a64 64 0 0 0 -87.425 23.426 64 64 0 0 0 -23.426-87.426l-16 27.713a64 64 0 0 0 23.426 87.426 64 64 0 0 0 87.425-23.426z" fill="#ffa754"/><path d="m441.856 177.712a64 64 0 0 0 -87.425 23.426 64 64 0 0 0 -23.426-87.426l-16 27.713a64 64 0 0 0 23.426 87.426 64 64 0 0 0 87.425-23.426z" fill="#ff9a3b"/><path d="m324.431 254.42a64 64 0 0 0 -23.426-87.426l-16 27.713a64 64 0 0 0 23.426 87.426 64 64 0 0 0 87.425-23.426l16-27.713a64 64 0 0 0 -87.425 23.426z" fill="#ffa754"/><path d="m383.856 283.712a64 64 0 0 0 -87.425 23.426 64 64 0 0 0 -23.426-87.426l-16 27.713a64 64 0 0 0 23.426 87.426 64 64 0 0 0 87.425-23.426z" fill="#ff9a3b"/><path d="m171.501 222.251h334.428v15.999h-334.428z" fill="#ffbd80" transform="matrix(.501 -.866 .866 .501 -30.187 408.169)"/><path d="m33 65.141h16v68.385h-16z" fill="#ffcf80" transform="matrix(.868 -.497 .497 .868 -43.961 33.532)"/><path d="m117.069 16.74h16v70.186h-16z" fill="#ffcf80" transform="matrix(.86 -.511 .511 .86 -8.926 71.18)"/><path d="m38.42 126.43a64 64 0 0 1 87.426 23.426 64 64 0 0 1 23.425-87.426l16 27.713a64 64 0 0 1 -23.425 87.426 64 64 0 0 1 -87.426-23.426z" fill="#ffc25c"/><path d="m402.238 343.28a40.96 40.96 0 0 1 40.96 40.96v20.48a0 0 0 0 1 0 0 40.96 40.96 0 0 1 -40.96-40.96v-20.48a0 0 0 0 1 0 0z" fill="#ffcb73" transform="matrix(.866 .5 -.5 .866 243.633 -161.252)"/><path d="m80.2 321.29a0 0 0 0 1 0 0v20.472a40.957 40.957 0 0 1 -40.957 40.957 0 0 0 0 1 0 0v-20.472a40.957 40.957 0 0 1 40.957-40.957z" fill="#ffa754" transform="matrix(-.248 .969 -.969 -.248 415.538 381.543)"/><path d="m68.42 174.43a64 64 0 0 1 87.426 23.426 64 64 0 0 1 23.425-87.426l16 27.713a64 64 0 0 1 -23.425 87.426 64 64 0 0 1 -87.426-23.426z" fill="#ffcb73"/><path d="m100.42 227.712a64 64 0 0 1 87.426 23.426 64 64 0 0 1 23.425-87.426l16 27.713a64 64 0 0 1 -23.425 87.426 64 64 0 0 1 -87.426-23.426z" fill="#ffc25c"/><path d="m217.846 304.42a64 64 0 0 1 23.425-87.426l16 27.713a64 64 0 0 1 -23.425 87.426 64 64 0 0 1 -87.426-23.426l-16-27.713a64 64 0 0 1 87.426 23.426z" fill="#ffcb73"/><path d="m158.42 333.712a64 64 0 0 1 87.426 23.426 64 64 0 0 1 23.425-87.426l16 27.713a64 64 0 0 1 -23.425 87.426 64 64 0 0 1 -87.426-23.426z" fill="#ffc25c"/><path d="m69.57 58.451h15.999v16h-15.999z" fill="#ffcf80" transform="matrix(.866 -.5 .5 .866 -22.833 47.687)"/><path d="m334.995 496-238.499-412.767-13.853 8.005 233.873 404.762z" fill="#ffcf80"/></g></g></svg>